<?xml version="1.0" standalone="no"?>
<!DOCTYPE svg PUBLIC "-//W3C//DTD SVG 20010904//EN"
 "http://www.w3.org/TR/2001/REC-SVG-20010904/DTD/svg10.dtd">
<svg version="1.0" xmlns="http://www.w3.org/2000/svg"
 width="1536.000000pt" height="1536.000000pt" viewBox="0 0 1536.000000 1536.000000"
 preserveAspectRatio="xMidYMid meet">
<metadata>
Created by potrace 1.16, written by Peter Selinger 2001-2019
</metadata>
<g transform="translate(0.000000,1536.000000) scale(0.100000,-0.100000)"
fill="#000000" stroke="none">
<path d="M0 7680 l0 -7680 7680 0 7680 0 0 7680 0 7680 -7680 0 -7680 0 0
-7680z m8902 7129 c63 -437 84 -682 53 -644 -9 11 -47 117 -86 235 -38 118
-74 219 -78 223 -20 20 -36 -71 -36 -198 0 -104 6 -159 29 -277 17 -81 27
-151 23 -155 -4 -4 -119 7 -255 25 -136 18 -274 35 -307 38 -125 11 -137 25
-103 124 11 34 17 64 13 68 -8 8 -18 -4 -90 -104 -61 -85 -68 -70 -26 51 49
138 41 140 -54 10 -44 -59 -77 -94 -89 -95 -15 0 -17 5 -11 28 23 93 76 166
294 407 20 22 118 130 217 240 261 289 414 440 437 432 6 -2 37 -185 69 -408z
m2000 -269 c33 -90 91 -296 112 -401 9 -42 18 -83 21 -91 3 -7 21 -83 40 -168
19 -85 50 -225 69 -310 85 -367 97 -448 106 -705 4 -132 18 -332 30 -445 42
-396 7 -628 -118 -773 -22 -25 -48 -69 -57 -96 -22 -66 -22 -223 -1 -327 16
-77 16 -83 -4 -146 -45 -148 -157 -265 -347 -364 l-67 -35 -111 7 c-118 7
-179 -1 -277 -37 -83 -31 -76 -46 25 -51 97 -4 159 -31 214 -91 22 -25 125
-221 289 -551 139 -282 264 -524 276 -537 171 -187 252 -281 248 -286 -3 -4
-35 -6 -71 -4 l-66 3 -47 -54 c-26 -29 -68 -95 -94 -147 -46 -91 -47 -96 -50
-201 -3 -76 0 -123 11 -159 15 -50 14 -52 -6 -65 -12 -8 -49 -30 -82 -51 -87
-54 -171 -144 -208 -223 -28 -60 -31 -76 -31 -157 1 -67 6 -104 22 -143 14
-38 17 -54 9 -57 -226 -74 -235 -78 -320 -149 -60 -50 -109 -124 -136 -204
-34 -99 -27 -273 15 -411 6 -19 4 -23 -7 -18 -221 95 -384 110 -515 46 -143
-69 -237 -254 -265 -524 -7 -60 -13 -111 -14 -113 -2 -2 -24 10 -51 26 -91 53
-205 102 -287 123 -118 31 -249 24 -338 -18 -84 -39 -164 -114 -216 -201 -44
-74 -107 -246 -118 -322 l-7 -45 76 -65 c42 -35 76 -67 76 -71 0 -8 -28 -13
-183 -34 -65 -9 -125 -15 -133 -13 -10 2 -2 21 31 70 25 37 45 73 45 81 0 24
-119 186 -187 253 -198 197 -418 229 -622 92 -101 -69 -281 -262 -281 -302 0
-9 24 -62 52 -119 29 -56 55 -106 57 -111 3 -8 -43 -5 -171 11 l-48 6 0 73 c0
94 -23 250 -51 340 -58 191 -178 304 -354 333 -122 21 -294 -15 -482 -100
l-63 -28 0 -130 c0 -87 -4 -131 -11 -131 -21 0 -99 52 -99 66 0 8 10 31 23 52
173 276 129 534 -113 666 -119 64 -309 75 -409 23 -46 -23 -67 -27 -248 -37
-311 -19 -431 -4 -603 76 -166 78 -354 247 -423 381 -10 18 -33 40 -52 49 -53
25 -110 97 -141 176 -27 70 -45 198 -28 198 5 0 38 -23 73 -52 53 -43 70 -64
99 -127 28 -60 35 -89 36 -138 1 -69 7 -73 70 -53 17 5 67 21 111 35 44 14 86
25 94 25 8 0 41 -17 75 -38 70 -44 244 -119 361 -155 316 -98 732 -96 1080 4
219 63 455 166 615 267 241 153 433 226 800 305 222 48 571 72 817 56 169 -10
233 -7 383 21 174 33 327 96 391 160 65 65 101 74 147 35 17 -14 33 -25 37
-25 31 0 -68 319 -154 494 -103 211 -198 336 -344 452 -79 62 -220 139 -310
168 -137 45 -388 59 -562 31 -139 -23 -366 -92 -381 -116 -12 -20 5 -21 63 -4
70 21 263 33 263 17 0 -7 -12 -14 -27 -18 -230 -50 -355 -123 -548 -318 -56
-55 -132 -144 -171 -196 -113 -154 -243 -365 -231 -376 3 -3 29 26 58 63 242
307 532 543 764 623 69 24 104 25 111 5 14 -36 -173 -255 -460 -538 -138 -137
-363 -360 -501 -497 -138 -137 -275 -264 -306 -283 -150 -95 -424 -173 -700
-198 -139 -13 -504 -7 -614 10 -38 6 -101 16 -140 22 -188 29 -231 43 -251 80
-14 27 -14 36 1 86 13 46 27 66 76 112 194 181 255 247 293 321 64 122 62 219
-9 357 -25 49 -109 119 -167 139 -39 13 -73 15 -152 12 -86 -4 -115 -11 -196
-43 -133 -52 -285 -84 -410 -85 -60 0 -94 -13 -66 -23 9 -4 64 -12 124 -18
119 -13 133 -10 396 66 182 53 248 43 364 -53 73 -61 97 -109 96 -197 0 -58
-5 -79 -29 -125 -32 -59 -130 -165 -206 -221 -26 -19 -110 -87 -188 -151
l-142 -118 -68 0 c-51 0 -78 6 -110 23 -45 24 -259 188 -260 199 -1 3 15 12
34 18 81 27 104 128 49 217 -33 54 -107 109 -160 119 -53 10 -58 -6 -15 -51
40 -42 61 -90 61 -136 0 -40 -10 -59 -30 -59 -23 0 -39 20 -99 126 -47 83 -52
97 -54 160 -3 123 36 204 100 204 28 0 38 20 52 110 44 272 231 731 417 1021
45 71 231 333 265 374 151 182 195 232 259 296 75 75 171 160 243 212 23 18
37 36 37 50 0 37 39 165 66 220 36 70 99 164 141 208 45 48 42 74 -10 73 -54
-2 -137 -63 -222 -164 -39 -46 -76 -85 -82 -87 -18 -6 -44 75 -37 115 11 62
71 177 116 221 59 60 92 75 166 74 50 0 70 -6 102 -27 50 -33 55 -33 70 4 22
54 -7 147 -70 220 -16 19 -30 39 -30 44 0 6 91 101 203 213 295 295 291 282
258 873 -12 206 -24 403 -28 438 -6 61 -6 62 20 62 41 0 107 -83 149 -187 39
-95 88 -242 88 -264 0 -31 35 -129 47 -129 51 0 69 308 29 495 -31 146 -96
297 -186 430 -93 138 -159 258 -214 385 -15 36 -31 74 -36 85 -51 119 -84 268
-78 349 6 64 30 126 50 126 21 0 65 -60 113 -153 87 -171 140 -243 260 -358
87 -83 175 -153 249 -199 178 -109 465 -390 602 -590 85 -124 153 -284 157
-371 2 -62 16 -58 -132 -40 -52 6 -122 9 -155 5 -122 -12 -281 -67 -315 -108
-18 -22 0 -21 80 3 204 62 345 66 457 16 95 -43 96 -45 11 -122 -137 -125
-269 -261 -269 -278 0 -21 6 -17 164 105 143 109 278 188 400 235 l81 30 215
-1 c468 -1 912 -98 1192 -261 194 -113 189 -110 182 -142 -12 -50 -48 -125
-81 -168 -51 -67 -31 -78 72 -43 73 25 133 71 177 135 43 61 61 115 89 265 46
249 111 498 187 710 137 384 224 542 399 724 43 45 110 117 149 161 39 44 113
127 165 184 270 299 333 371 377 431 109 149 132 154 174 40z m1755 -277 c34
-16 66 -59 77 -105 10 -44 -30 -145 -88 -223 -106 -140 -126 -219 -135 -511
-7 -234 -12 -253 -73 -273 -18 -5 -132 -19 -253 -31 -260 -25 -285 -28 -285
-40 0 -9 9 -14 133 -69 78 -34 81 -44 46 -137 -35 -92 -129 -222 -236 -325
-91 -87 -271 -219 -298 -219 -16 0 -28 71 -14 85 5 5 33 17 62 27 l52 17 -60
-2 c-46 -1 -60 1 -60 12 0 16 13 23 80 45 l50 16 -63 -4 c-50 -3 -65 -1 -69
11 -8 21 7 28 100 48 44 10 94 24 111 32 l31 14 -30 -5 c-170 -30 -229 -33
-223 -13 4 11 55 30 143 53 28 8 27 8 -19 14 -27 3 -51 10 -53 16 -2 6 24 19
59 28 35 10 81 24 103 31 38 13 39 14 10 14 -16 0 -79 -8 -140 -19 -113 -19
-125 -19 -125 5 0 14 38 28 115 41 68 11 197 43 204 49 7 8 -58 0 -204 -26
-133 -23 -125 -23 -125 1 0 12 8 22 23 25 12 3 51 11 87 19 142 30 214 50 197
54 -17 3 -265 -34 -291 -44 -7 -3 -18 2 -25 10 -17 21 -1 27 153 62 153 34
141 43 -24 19 -113 -17 -164 -15 -144 5 5 5 70 23 144 40 128 29 218 57 145
45 -16 -2 -68 -9 -115 -15 -47 -6 -104 -14 -127 -19 -44 -8 -70 -1 -59 17 4 6
33 16 66 23 33 6 65 18 72 27 11 13 5 14 -47 8 -99 -12 -100 -12 -100 4 0 10
26 22 84 37 100 26 133 49 56 39 -149 -19 -158 -19 -153 -5 5 16 8 17 228 64
91 20 174 40 185 44 31 13 -74 2 -230 -24 -131 -22 -173 -22 -143 2 7 5 63 20
123 33 96 20 149 33 280 70 17 4 25 8 19 9 -13 1 -249 -34 -301 -45 -39 -8
-45 11 -10 27 13 6 93 28 178 50 157 39 147 45 -33 18 -85 -13 -106 -11 -94 9
3 6 77 27 163 47 87 21 163 42 168 48 7 7 5 8 -6 4 -10 -3 -50 -9 -89 -13 -82
-8 -86 0 -18 37 370 196 387 204 397 193 12 -13 -24 -441 -39 -459 -16 -20
-58 -31 -195 -55 -249 -43 -352 -74 -342 -103 5 -16 103 -12 357 13 107 11
238 22 290 26 114 8 150 23 150 63 0 15 -8 35 -17 43 -21 18 -92 40 -105 32
-5 -3 -15 0 -23 6 -12 10 -15 52 -15 232 0 206 1 223 21 258 12 21 38 47 58
58 38 21 78 59 70 66 -2 2 -51 -19 -109 -48 -58 -28 -196 -85 -305 -125 -309
-114 -481 -193 -613 -283 -23 -16 -46 -27 -51 -24 -11 7 -44 184 -37 201 2 7
53 40 113 73 59 32 129 72 155 88 26 16 80 49 120 73 40 24 141 85 223 136
272 166 347 202 529 250 94 25 126 25 183 -2z m-5341 -61 c178 -45 465 -166
468 -197 1 -5 -38 -15 -86 -21 -128 -17 -305 -61 -453 -111 -126 -43 -390
-162 -380 -171 2 -2 56 16 119 42 359 145 690 204 1081 193 420 -13 761 -90
1200 -270 209 -85 315 -134 315 -145 0 -5 -29 -69 -64 -143 -79 -166 -140
-328 -201 -529 -73 -246 -126 -382 -157 -408 -10 -8 -24 -4 -58 19 -24 16 -46
31 -48 33 -1 2 6 40 17 84 25 97 28 244 6 347 -33 157 -146 315 -275 384 -83
44 -100 38 -49 -19 169 -188 239 -341 225 -496 -6 -80 -51 -234 -68 -234 -5 0
-51 15 -102 34 -50 19 -120 42 -156 51 -147 37 -141 34 -156 70 -22 53 -18
105 12 149 33 49 28 59 -57 108 -131 77 -145 120 -94 291 19 65 14 116 -13
140 -48 42 -288 82 -446 74 -130 -6 -216 -29 -334 -88 -82 -41 -225 -159 -210
-174 4 -4 41 8 82 28 42 20 78 32 81 27 3 -4 -1 -39 -10 -77 -8 -37 -19 -94
-25 -125 -11 -56 -47 -124 -65 -122 -6 0 -23 25 -39 55 -68 128 -176 301 -242
389 -86 113 -256 279 -316 307 -59 28 -458 392 -458 419 0 13 74 37 225 74
177 43 232 49 425 46 167 -3 197 -7 306 -34z m-1629 -457 c132 -313 189 -577
165 -769 -7 -50 -14 -163 -17 -251 -4 -88 -8 -170 -10 -181 -5 -21 -10 -22
-132 -22 -137 0 -193 -6 -483 -52 -211 -34 -585 -74 -606 -66 -24 9 -16 31 24
68 210 194 528 311 962 354 73 7 74 8 35 16 -80 18 -353 -18 -558 -73 -43 -12
-81 -19 -84 -15 -10 10 18 56 63 101 83 86 182 128 447 191 189 45 142 56 -83
19 -113 -19 -195 -47 -295 -101 -45 -24 -90 -44 -101 -44 -10 0 -39 11 -63 25
-23 14 -49 25 -56 25 -7 0 -18 6 -25 14 -9 12 16 33 152 122 386 253 489 325
470 332 -9 3 -156 -60 -266 -114 -33 -16 -59 -18 -54 -5 2 5 82 90 178 188 97
98 200 206 230 241 29 34 60 61 67 60 8 -2 26 -30 40 -63z m6643 -821 c30 -14
63 -33 72 -41 26 -23 22 -66 -11 -120 -16 -27 -70 -124 -121 -218 -244 -446
-315 -537 -547 -690 -63 -41 -97 -75 -75 -75 4 0 38 16 76 35 68 35 96 43 96
27 0 -20 -131 -365 -156 -412 -51 -94 -163 -176 -293 -216 -58 -18 -68 -9 -76
72 -6 51 -4 69 9 89 13 20 14 30 6 46 -18 32 6 84 65 145 46 47 56 66 74 132
26 91 57 290 66 420 l7 93 61 37 c239 146 420 339 553 590 26 48 54 92 63 99
25 19 71 15 131 -13z m-7445 -9 c28 -8 59 -21 70 -29 20 -14 20 -15 -10 -72
-37 -71 -101 -140 -137 -149 -23 -6 -37 0 -79 34 -28 22 -68 45 -88 51 -32 8
-194 30 -228 30 -29 0 -10 30 38 60 142 92 286 116 434 75z m3122 -15 c35 -6
97 -26 139 -45 81 -37 204 -119 204 -136 0 -23 -104 2 -151 37 -88 64 -174 97
-266 102 -98 5 -150 -6 -259 -58 -45 -21 -101 -44 -125 -50 -38 -10 -44 -10
-56 6 -17 24 -16 34 5 40 9 3 55 23 102 44 85 38 133 55 180 63 49 8 166 7
227 -3z m-3372 -189 c47 -21 78 -53 73 -75 -3 -17 -147 -179 -191 -215 -16
-13 -67 -38 -115 -56 -159 -59 -276 -127 -379 -219 -60 -54 -78 -57 -168 -31
-65 20 -222 26 -313 12 -52 -8 -53 -7 -42 13 20 38 150 168 223 224 88 67 190
118 297 149 87 25 93 37 19 37 -26 0 -50 4 -53 9 -10 15 74 82 139 112 55 25
120 40 220 52 17 2 80 5 140 5 88 1 118 -2 150 -17z m1183 -405 c3 -208 -5
-247 -69 -346 -23 -36 -119 -144 -214 -240 -95 -96 -206 -211 -246 -256 -77
-82 -199 -239 -199 -254 0 -15 -26 -18 -71 -10 -24 5 -120 21 -214 35 -93 15
-173 30 -177 34 -8 7 8 26 139 174 28 32 61 77 72 101 71 145 -44 358 -244
456 -132 64 -240 91 -392 97 -73 3 -133 9 -133 14 0 11 67 61 135 100 175 101
309 139 495 139 136 0 239 14 540 71 293 55 389 67 500 65 l75 -1 3 -179z
m-2014 -231 c82 -17 118 -38 109 -62 -7 -18 -3 -17 74 11 142 52 345 40 507
-31 211 -93 280 -251 151 -349 -57 -43 -105 -33 -298 64 -181 91 -228 108
-328 122 -99 14 -175 3 -212 -29 -27 -24 -31 -37 -45 -140 -13 -96 -14 -130
-4 -225 20 -181 73 -489 88 -513 20 -31 72 -38 188 -25 80 8 113 17 170 46 77
39 95 52 144 109 24 29 32 47 32 77 0 21 -4 42 -10 45 -5 3 -31 -1 -57 -10
-59 -20 -107 -13 -166 25 -53 34 -87 76 -123 155 -35 76 -42 142 -20 199 26
68 47 81 127 80 61 0 73 -4 106 -30 33 -26 183 -236 183 -256 0 -5 -6 -8 -13
-8 -21 0 -52 40 -79 101 -14 31 -36 68 -48 82 -55 63 -182 75 -227 22 -58 -67
9 -202 125 -251 20 -8 70 -21 110 -28 110 -20 143 -64 119 -158 -19 -74 -146
-188 -257 -232 -96 -38 -298 -42 -341 -7 -16 13 -24 43 -40 141 -57 375 -74
604 -55 751 l8 66 -53 6 c-85 8 -262 38 -288 48 -23 9 -23 10 30 66 59 63 54
79 -14 40 -52 -31 -79 -59 -107 -113 -38 -75 -38 -145 1 -98 35 42 124 58 177
30 60 -31 88 -80 102 -176 15 -106 -15 -204 -87 -284 -31 -34 -35 -43 -31 -80
6 -54 63 -167 111 -222 21 -23 62 -55 91 -69 45 -22 76 -55 76 -80 0 -21 -111
42 -171 97 -76 70 -148 189 -163 270 -8 43 2 66 51 121 77 86 96 210 47 303
-32 62 -58 84 -99 84 -47 0 -64 -8 -80 -41 -26 -50 -19 -110 18 -160 36 -48
63 -106 54 -116 -12 -11 -64 18 -105 59 -57 56 -76 110 -70 200 17 264 292
437 592 373z m-604 -587 c0 -18 -7 -58 -15 -88 -38 -140 -12 -203 108 -266 27
-14 47 -30 44 -37 -2 -6 -30 -19 -62 -28 -32 -10 -62 -22 -68 -28 -28 -28 58
-163 139 -216 75 -50 138 -66 272 -69 62 -2 115 -6 119 -9 11 -12 -67 -38
-130 -44 -81 -7 -167 10 -245 48 -85 42 -141 116 -171 227 -26 98 -26 100 4
112 29 11 31 22 9 40 -27 23 -64 96 -73 146 -11 56 0 132 29 200 23 52 40 57
40 12z m1530 -422 c91 -9 190 -17 220 -18 54 -3 55 -4 58 -36 2 -21 -2 -34
-12 -38 -15 -6 -271 30 -341 48 -59 15 -135 49 -135 60 0 6 10 8 23 5 12 -3
96 -13 187 -21z m-326 -195 c100 -28 198 -41 374 -49 83 -4 154 -11 158 -15 4
-4 -1 -16 -12 -28 -18 -20 -26 -21 -114 -14 -152 10 -266 25 -393 51 -129 26
-137 29 -137 49 0 29 34 31 124 6z m-267 -240 c97 -36 287 -77 398 -86 141
-12 149 -24 27 -40 -42 -5 -77 -14 -77 -19 0 -5 28 -16 63 -23 65 -15 80 -35
47 -63 -29 -24 -406 89 -522 156 -146 84 -233 159 -233 201 0 6 46 -11 108
-42 59 -30 144 -67 189 -84z m7264 39 c107 -30 172 -202 120 -317 -20 -43 -62
-73 -101 -73 -11 0 -20 7 -20 15 0 8 4 15 8 15 4 0 16 14 25 30 10 17 27 30
37 30 19 0 26 20 33 90 2 23 -1 25 -35 22 -30 -3 -37 0 -43 18 -8 26 -48 52
-68 44 -10 -3 -21 2 -29 15 -15 24 -38 28 -38 6 0 -8 9 -61 20 -117 23 -121
22 -108 10 -108 -16 0 -39 56 -46 113 -11 90 3 166 36 199 31 31 39 32 91 18z
m-6250 -12 c3 -29 -4 -65 -16 -88 -7 -14 -18 -42 -25 -64 -26 -82 -55 -132
-133 -230 -45 -56 -94 -117 -108 -136 -36 -47 -70 -82 -75 -77 -14 13 54 266
100 369 45 101 252 283 257 226z m5849 -57 c0 -42 -148 -292 -170 -288 -9 1
-20 22 -26 52 -29 124 -10 165 96 211 81 34 100 39 100 25z m-7261 -320 c18
-18 18 -21 -4 -113 -24 -105 -30 -118 -50 -118 -21 0 -28 39 -23 123 8 117 33
152 77 108z m7759 -617 c27 -18 63 -87 88 -166 18 -58 18 -58 -6 -109 -29 -61
-45 -74 -35 -28 4 19 7 60 7 92 -1 47 -6 66 -26 92 -43 56 -122 69 -154 24 -7
-10 -19 -16 -27 -12 -9 3 -22 0 -30 -7 -12 -10 -16 -9 -21 5 -18 45 72 125
140 125 23 0 52 -7 64 -16z m18 -156 c4 -5 2 -26 -5 -48 -12 -40 -42 -70 -72
-70 -21 0 -89 82 -89 107 0 16 9 18 79 18 44 0 83 -3 87 -7z m-2903 -378 c104
-46 153 -145 151 -310 -1 -90 -6 -118 -34 -202 -18 -54 -39 -103 -46 -109 -11
-9 -24 -9 -57 0 -119 36 -257 148 -346 281 -42 63 -43 67 -37 123 7 71 44 151
90 196 63 61 170 69 279 21z m-492 -193 c81 -53 161 -228 175 -380 10 -114 -2
-184 -37 -220 -29 -28 -33 -29 -97 -25 -48 4 -81 13 -117 33 -70 39 -82 51
-90 93 -11 58 -33 120 -77 213 l-40 86 30 60 c75 147 167 198 253 140z m3438
-37 c135 -16 252 -32 262 -35 28 -9 11 -42 -65 -124 -134 -145 -261 -284 -290
-317 -16 -19 -36 -34 -45 -34 -21 0 -111 82 -111 101 0 8 115 91 255 183 141
93 254 171 252 172 -2 2 -53 -5 -113 -15 -90 -17 -452 -71 -469 -71 -19 0 24
147 47 162 17 11 3 12 277 -22z m-3779 -239 c87 -91 121 -224 101 -388 -17
-142 -9 -137 -146 -95 l-115 36 0 64 c0 76 -15 107 -75 159 l-46 39 113 112
c62 62 117 112 122 112 5 0 26 -18 46 -39z m1159 -96 c98 -34 152 -104 172
-220 13 -75 5 -164 -14 -170 -7 -2 -64 -19 -127 -39 -185 -57 -166 -59 -174
21 -10 99 -34 168 -72 208 l-33 36 20 52 c12 29 25 65 30 80 15 53 28 60 94
54 33 -3 80 -13 104 -22z m-363 -129 c96 -45 164 -159 164 -274 0 -32 -6 -66
-13 -76 -39 -54 -394 -43 -451 13 -14 15 -20 38 -24 96 -4 69 -3 77 15 81 21
6 53 52 53 78 0 90 141 136 256 82z m-1063 -54 c50 -48 58 -139 20 -265 -46
-156 -153 -200 -306 -124 -40 20 -88 50 -107 66 l-35 31 70 67 c278 266 277
265 304 258 14 -4 38 -18 54 -33z m3750 -64 c72 -50 146 -101 162 -113 125
-86 193 -137 209 -156 18 -22 18 -23 0 -36 -10 -7 -32 -17 -49 -22 -16 -5 -88
-30 -160 -56 -267 -96 -439 -155 -451 -155 -17 0 -53 83 -61 137 l-5 41 53 6
c151 16 378 37 487 46 128 10 172 18 172 29 0 3 -42 20 -93 38 -50 17 -146 52
-212 78 -66 26 -168 66 -227 88 -113 43 -127 57 -89 91 29 27 105 74 119 75 7
1 72 -40 145 -91z m-3203 -44 c36 -13 73 -24 82 -24 9 0 20 -5 23 -11 11 -16
36 -143 31 -155 -2 -6 -55 -17 -117 -24 l-112 -13 -29 34 c-18 21 -27 42 -24
54 4 17 31 122 43 164 2 8 9 10 21 5 9 -4 46 -18 82 -30z m-287 -163 c48 -22
87 -45 87 -50 0 -5 -46 -12 -102 -16 -57 -4 -125 -11 -152 -16 -27 -5 -52 -7
-55 -4 -6 7 26 101 45 132 13 21 16 21 51 9 21 -8 77 -33 126 -55z m3012 -389
c16 -10 341 -523 349 -548 5 -15 1 -24 -11 -28 -18 -7 -571 -56 -635 -56 -35
0 -37 2 -52 48 -22 65 -37 149 -30 167 10 24 -4 27 491 -92 106 -26 196 -44
199 -40 6 6 -37 47 -101 97 -129 100 -435 365 -432 374 4 15 103 63 152 75 52
12 58 12 70 3z m-6752 -593 c56 -30 49 -59 -14 -59 -63 0 -84 -11 -98 -51 -13
-38 -24 -32 -56 31 -31 61 -31 77 -2 83 47 9 149 6 170 -4z m223 -68 c27 -32
70 -74 96 -92 61 -44 65 -57 24 -64 -61 -12 -77 -4 -97 50 -21 57 -51 84 -91
85 -43 0 -84 50 -61 73 3 4 23 7 43 7 33 0 43 -7 86 -59z m-121 -47 c87 -18
110 -39 106 -95 -3 -40 -144 -62 -200 -31 -41 22 -71 74 -71 120 l0 33 48 -6
c26 -4 79 -14 117 -21z m6008 -12 c26 -14 51 -30 56 -36 12 -15 60 -492 54
-533 -4 -26 -10 -33 -27 -33 -11 0 -145 42 -296 94 -205 69 -276 97 -278 110
-5 24 57 212 77 238 17 21 18 20 117 -68 54 -49 130 -118 169 -155 132 -123
208 -189 218 -189 6 0 6 4 0 13 -6 6 -16 30 -23 52 -7 22 -35 96 -62 165 -109
278 -139 361 -132 371 9 16 70 2 127 -29z m-6284 -156 c85 -100 176 -165 287
-205 120 -44 212 -54 479 -55 249 -1 341 9 501 54 60 16 64 16 64 0 0 -21 -71
-192 -88 -213 -28 -33 -278 -62 -476 -54 -181 8 -311 31 -473 85 -284 95 -406
194 -428 345 -6 41 -4 53 19 87 14 22 30 40 34 40 5 0 41 -38 81 -84z m1991
43 c106 -17 106 -24 -7 -115 -54 -43 -105 -84 -113 -91 -8 -6 -67 -54 -130
-105 -63 -51 -130 -104 -148 -117 -62 -44 -37 -38 213 44 22 7 125 41 228 75
123 40 192 59 199 52 13 -13 -9 -174 -27 -188 -20 -15 -715 -42 -715 -27 0 12
327 453 348 471 19 15 66 15 152 1z m-1467 -63 c11 -22 21 -54 24 -73 5 -28 2
-34 -21 -43 -44 -16 -123 -12 -165 9 -39 21 -111 86 -111 102 0 13 13 17 115
33 128 20 136 18 158 -28z m387 -13 c81 -73 -2 -190 -128 -180 -48 3 -58 9
-102 52 -68 67 -115 134 -98 140 25 8 74 12 185 14 110 1 113 0 143 -26z m168
-10 c40 -27 103 -30 142 -8 35 20 100 20 100 -1 0 -20 -58 -43 -140 -56 -74
-12 -115 -30 -130 -58 -11 -21 -68 -55 -77 -46 -3 3 2 23 11 46 18 46 21 93 6
121 -24 45 24 46 88 2z m4285 -332 c34 -15 73 -37 86 -48 l24 -20 -26 -149
c-15 -82 -38 -221 -52 -309 -14 -88 -30 -168 -35 -177 -6 -10 -10 -25 -10 -33
0 -24 -13 -18 -93 43 -42 31 -166 124 -276 206 -229 169 -214 143 -154 276 35
77 58 110 77 110 6 -1 33 -33 59 -73 26 -40 74 -108 105 -153 31 -44 95 -136
142 -204 47 -67 95 -134 108 -149 l23 -26 -5 42 c-3 23 -10 86 -16 140 -5 54
-17 145 -25 203 -8 58 -19 152 -25 210 -7 57 -14 108 -16 112 -8 13 6 28 27
28 11 0 47 -13 82 -29z m-2613 -40 c0 -6 -43 -144 -95 -307 -53 -164 -94 -304
-93 -312 3 -13 99 62 442 343 43 36 86 65 96 65 18 0 35 -37 65 -144 14 -49
15 -60 4 -71 -15 -14 -557 -219 -601 -227 -21 -4 -28 0 -32 16 -8 29 -7 326 1
463 l6 111 76 36 c73 35 131 46 131 27z m-2390 -35 c178 -44 312 -59 505 -60
99 -1 215 3 258 7 72 7 77 7 77 -11 0 -32 -40 -74 -64 -68 -25 7 -222 -19
-295 -39 -61 -16 -74 -25 -66 -47 7 -19 60 -33 176 -48 84 -11 119 -23 107
-35 -3 -4 -84 -6 -180 -6 -231 1 -312 22 -442 115 -65 47 -206 187 -206 205 0
16 16 14 130 -13z m3425 -205 c3 -5 27 -96 54 -203 27 -106 62 -236 76 -288
15 -52 31 -113 37 -135 12 -54 25 -65 33 -29 4 16 22 79 40 139 18 61 50 171
71 245 72 261 75 270 92 270 25 0 152 -136 152 -163 0 -17 -233 -382 -329
-514 -21 -29 -42 -29 -68 0 -17 18 -133 215 -241 407 -14 25 -36 62 -49 82
-12 21 -23 46 -23 56 0 22 114 142 134 142 8 0 17 -4 21 -9z"/>
<path d="M10543 14035 c-33 -23 -237 -258 -313 -360 -159 -213 -210 -302 -391
-680 -53 -112 -119 -349 -143 -516 -21 -140 -21 -401 0 -533 25 -161 75 -332
148 -498 17 -39 9 -51 -14 -23 -24 29 -164 122 -230 153 -87 41 -196 70 -211
55 -7 -7 1 -15 28 -28 21 -10 75 -41 119 -70 209 -135 401 -375 556 -692 32
-68 62 -123 66 -123 4 0 23 16 41 35 18 20 46 42 61 50 85 44 243 75 381 75
87 0 87 0 145 43 69 50 105 95 142 175 24 51 27 67 26 162 -1 58 -5 151 -9
207 -9 123 7 180 71 252 49 57 69 97 94 199 44 176 62 430 49 690 -9 201 -9
197 -39 412 -25 177 -41 262 -81 437 -36 156 -54 207 -64 180 -4 -9 -4 -36 -1
-60 37 -248 57 -852 37 -1117 -28 -365 -88 -545 -232 -704 -82 -89 -93 -116
-92 -211 0 -44 4 -107 8 -140 9 -73 -6 -158 -40 -234 -63 -136 -171 -188 -301
-144 -193 65 -308 308 -321 679 -8 201 23 647 57 823 13 72 13 91 -4 91 -8 0
-27 -31 -44 -72 -42 -104 -63 -178 -109 -388 -12 -57 -14 9 -3 123 40 426 142
843 260 1062 15 28 55 106 90 174 34 68 88 167 118 220 30 53 60 105 66 116 6
11 33 54 60 94 26 41 50 81 53 88 7 17 -8 16 -34 -2z"/>
<path d="M6280 13399 c0 -8 13 -42 29 -75 28 -58 65 -167 95 -274 8 -30 22
-116 32 -190 15 -116 16 -153 6 -261 -6 -70 -18 -145 -26 -168 -7 -23 -10 -43
-6 -46 7 -4 110 45 129 61 12 10 30 150 31 230 0 170 -46 357 -122 487 -15 26
-28 50 -28 53 0 6 -92 140 -119 174 -15 18 -21 21 -21 9z"/>
<path d="M9593 12478 c-47 -133 -84 -354 -118 -705 l-6 -62 103 -50 c56 -28
106 -47 110 -43 5 5 0 35 -11 68 -23 71 -46 187 -62 309 -11 88 -7 410 7 483
3 17 2 32 -3 32 -5 0 -14 -15 -20 -32z"/>
<path d="M8030 11925 c-378 -42 -722 -185 -991 -411 -76 -65 -178 -171 -187
-195 -7 -19 23 -7 80 31 68 45 101 54 48 12 -43 -34 -82 -74 -76 -79 2 -3 35
15 73 40 239 156 548 289 801 347 207 47 245 51 426 51 234 0 246 8 246 160 0
34 -5 49 -16 53 -26 10 -282 4 -404 -9z"/>
<path d="M7982 11169 c-153 -26 -380 -133 -536 -254 -54 -42 -240 -198 -246
-207 -13 -17 -103 -49 -143 -50 -126 -2 -188 38 -366 239 -78 88 -178 163
-217 163 -24 0 -16 -13 44 -71 69 -68 112 -149 119 -228 9 -86 44 -145 149
-248 81 -79 103 -95 152 -110 75 -23 189 -22 272 3 57 17 93 19 283 17 257 -3
425 17 577 67 90 31 190 75 190 85 0 3 -17 13 -38 24 -63 32 -70 47 -37 81 27
28 27 29 16 92 -16 88 0 141 56 184 67 51 145 53 293 8 49 -15 -2 39 -72 76
-36 19 -73 42 -82 51 -22 24 -92 56 -161 74 -64 16 -168 18 -253 4z m-17 -112
c8 -31 -11 -181 -30 -238 -21 -63 -72 -119 -140 -153 -73 -37 -210 -47 -325
-23 -82 17 -150 42 -150 56 0 10 77 81 88 81 4 0 29 -7 56 -15 72 -22 198 -20
244 4 84 43 104 77 137 233 4 20 18 35 53 52 59 31 60 31 67 3z"/>
<path d="M8633 10648 c-6 -7 -13 -27 -16 -44 -11 -57 -66 -156 -117 -210 -27
-29 -50 -58 -50 -63 0 -6 -5 -11 -10 -11 -12 0 -70 -41 -70 -49 0 -3 55 -7
123 -7 141 -2 241 -27 387 -95 134 -63 281 -168 376 -269 38 -39 44 -42 50
-26 8 21 -25 132 -62 212 -13 28 -24 53 -24 56 0 3 -23 45 -51 94 -119 206
-265 343 -429 401 -75 26 -94 28 -107 11z"/>
<path d="M10240 10553 c-34 -6 -199 -87 -230 -111 l-25 -21 70 2 c109 2 183
-40 270 -153 88 -114 165 -286 219 -491 45 -167 58 -198 117 -279 61 -85 125
-143 227 -210 45 -30 82 -58 82 -61 0 -4 -12 -18 -27 -31 -62 -52 -124 -163
-159 -284 -24 -84 -15 -98 26 -38 47 69 98 124 165 179 64 52 107 72 185 89
52 11 55 13 53 40 -5 62 -134 219 -281 341 -25 21 -88 139 -274 512 -167 336
-248 489 -265 500 -25 17 -108 25 -153 16z"/>
<path d="M7065 10183 c-214 -31 -511 -204 -785 -458 -120 -111 -375 -366 -425
-427 -27 -33 -60 -71 -73 -86 -13 -15 -41 -49 -61 -77 -87 -114 -230 -221
-464 -345 -64 -34 -119 -66 -122 -71 -3 -4 21 -22 53 -38 63 -32 99 -75 128
-151 26 -68 24 -248 -4 -372 -26 -114 -26 -118 -9 -117 25 1 101 123 153 249
18 42 22 140 11 290 -2 33 2 37 75 87 143 97 325 183 386 183 78 0 44 87 -45
114 -13 4 -23 11 -23 15 0 16 147 147 230 206 156 109 350 193 486 211 106 13
99 30 -31 72 -49 16 -90 33 -92 38 -2 5 12 16 29 23 18 8 66 30 106 48 205 93
560 182 727 183 92 0 110 11 65 39 -39 23 -129 45 -246 60 -84 10 -260 1 -367
-19 -105 -20 -103 -17 89 111 86 58 165 97 267 135 42 16 77 32 77 37 0 4 -22
5 -50 1 -62 -8 -69 10 -9 26 77 21 18 47 -76 33z"/>
<path d="M8326 9968 c-117 -8 -223 -31 -350 -77 -89 -31 -113 -55 -49 -47 131
15 188 17 278 6 323 -38 527 -109 762 -267 158 -106 372 -331 451 -474 26 -46
52 -64 52 -36 0 29 -71 222 -110 300 -77 150 -115 205 -228 321 -207 213 -455
297 -806 274z"/>
<path d="M10020 9789 c0 -6 20 -39 45 -73 63 -88 121 -218 140 -308 30 -150
16 -348 -36 -499 -56 -165 -190 -398 -330 -575 -79 -99 -241 -276 -247 -269
-3 2 9 31 26 63 57 106 76 279 51 445 -16 103 -22 111 -74 104 -44 -6 -115
-35 -127 -51 -3 -5 2 -27 12 -50 9 -23 24 -70 33 -106 65 -270 0 -440 -208
-540 l-80 -39 42 -1 c49 0 135 30 188 65 41 29 68 33 39 8 -135 -122 -273
-204 -482 -289 -277 -113 -507 -158 -802 -159 -164 0 -203 4 -345 30 -143 27
-180 30 -345 29 -197 -1 -272 -9 -440 -50 -176 -43 -326 -98 -505 -186 -173
-84 -335 -189 -335 -216 0 -25 199 -212 225 -212 5 0 16 -6 24 -14 20 -18 198
-107 271 -136 308 -122 744 -176 1214 -151 470 25 624 59 1004 220 291 123
737 407 1078 687 359 295 430 366 547 554 49 79 163 312 169 345 7 42 -29 21
-84 -48 -78 -97 -126 -147 -144 -147 -10 0 -14 13 -15 43 0 23 -2 49 -3 57 -2
8 -6 47 -10 85 -13 131 -55 409 -81 530 -78 366 -164 595 -282 753 -61 81
-133 136 -133 101z m241 -1601 c-1 -134 -3 -250 -4 -258 -13 -64 -24 -80 -120
-166 -91 -81 -146 -129 -292 -247 -156 -126 -433 -305 -600 -387 -147 -72
-298 -134 -315 -128 -5 2 18 26 52 53 52 42 246 219 388 353 19 19 85 78 145
132 159 142 254 236 401 401 90 101 252 345 309 466 11 24 24 38 29 33 4 -5 8
-118 7 -252z"/>
<path d="M4665 8219 c-63 -32 -101 -81 -119 -154 -33 -133 -10 -242 58 -270
45 -19 104 -19 149 0 55 23 182 130 253 214 93 111 82 118 -31 21 -126 -109
-226 -134 -257 -65 -8 19 -8 35 2 67 18 62 45 95 106 129 30 17 54 34 54 39 0
15 -80 40 -128 40 -28 0 -63 -8 -87 -21z"/>
<path d="M12418 14204 c-5 -4 -8 -23 -8 -41 0 -61 84 -110 148 -87 54 19 55
82 1 110 -35 18 -130 30 -141 18z"/>
<path d="M7854 13623 c-47 -48 -90 -96 -95 -106 -10 -17 -7 -18 63 -10 105 12
291 9 376 -6 40 -7 76 -10 80 -6 8 8 -37 48 -164 145 -79 61 -96 70 -133 70
-40 0 -47 -5 -127 -87z"/>
<path d="M8008 8892 c-16 -9 -28 -19 -28 -22 0 -3 28 -18 62 -35 56 -27 65
-36 98 -98 20 -37 44 -100 53 -140 9 -39 21 -90 26 -112 l9 -40 2 45 c7 131
-4 180 -73 315 -53 105 -88 126 -149 87z"/>
<path d="M8917 8465 c48 -44 81 -84 99 -121 25 -51 26 -61 16 -98 -12 -46 -9
-55 16 -40 13 8 18 28 20 78 3 61 0 72 -27 115 -27 42 -79 84 -148 120 -51 26
-42 7 24 -54z"/>
<path d="M4530 6772 c0 -12 71 -78 99 -92 35 -18 86 -4 121 33 16 18 30 37 30
43 0 6 -29 14 -67 17 -94 9 -183 9 -183 -1z"/>
</g>
</svg>
